<svg xmlns="http://www.w3.org/2000/svg" xmlns:xlink="http://www.w3.org/1999/xlink" width="500" zoomAndPan="magnify" viewBox="0 0 375 374.999991" height="500" preserveAspectRatio="xMidYMid meet" version="1.0"><defs><g/><clipPath id="f02d1bb346"><path d="M 111 105 L 277 105 L 277 273 L 111 273 Z M 111 105 " clip-rule="nonzero"/></clipPath><clipPath id="8ab947d8f7"><path d="M 61.574219 178.101562 L 194.542969 61.273438 L 313.347656 196.496094 L 180.378906 313.324219 Z M 61.574219 178.101562 " clip-rule="nonzero"/></clipPath><clipPath id="d1c174a00f"><path d="M 61.574219 178.101562 L 194.542969 61.273438 L 313.347656 196.496094 L 180.378906 313.324219 Z M 61.574219 178.101562 " clip-rule="nonzero"/></clipPath><clipPath id="7e53d6a178"><path d="M 61.574219 178.101562 L 194.542969 61.273438 L 313.347656 196.496094 L 180.378906 313.324219 Z M 61.574219 178.101562 " clip-rule="nonzero"/></clipPath><clipPath id="dc940c69a7"><path d="M 108 131 L 119 131 L 119 179 L 108 179 Z M 108 131 " clip-rule="nonzero"/></clipPath><clipPath id="344149435e"><path d="M 61.574219 178.101562 L 194.542969 61.273438 L 313.347656 196.496094 L 180.378906 313.324219 Z M 61.574219 178.101562 " clip-rule="nonzero"/></clipPath><clipPath id="45d19e92f1"><path d="M 61.574219 178.101562 L 194.542969 61.273438 L 313.347656 196.496094 L 180.378906 313.324219 Z M 61.574219 178.101562 " clip-rule="nonzero"/></clipPath><clipPath id="7413020e95"><path d="M 61.574219 178.101562 L 194.542969 61.273438 L 313.347656 196.496094 L 180.378906 313.324219 Z M 61.574219 178.101562 " clip-rule="nonzero"/></clipPath><clipPath id="e8c502f7ea"><path d="M 111 146 L 139 146 L 139 186 L 111 186 Z M 111 146 " clip-rule="nonzero"/></clipPath><clipPath id="a9f69fd842"><path d="M 61.574219 178.101562 L 194.542969 61.273438 L 313.347656 196.496094 L 180.378906 313.324219 Z M 61.574219 178.101562 " clip-rule="nonzero"/></clipPath><clipPath id="ebb29b7d04"><path d="M 61.574219 178.101562 L 194.542969 61.273438 L 313.347656 196.496094 L 180.378906 313.324219 Z M 61.574219 178.101562 " clip-rule="nonzero"/></clipPath><clipPath id="7b0092bb08"><path d="M 61.574219 178.101562 L 194.542969 61.273438 L 313.347656 196.496094 L 180.378906 313.324219 Z M 61.574219 178.101562 " clip-rule="nonzero"/></clipPath><clipPath id="c61b567487"><path d="M 97 217 L 131 217 L 131 241 L 97 241 Z M 97 217 " clip-rule="nonzero"/></clipPath><clipPath id="b4c939e466"><path d="M 61.574219 178.101562 L 194.542969 61.273438 L 313.347656 196.496094 L 180.378906 313.324219 Z M 61.574219 178.101562 " clip-rule="nonzero"/></clipPath><clipPath id="5bce31518d"><path d="M 61.574219 178.101562 L 194.542969 61.273438 L 313.347656 196.496094 L 180.378906 313.324219 Z M 61.574219 178.101562 " clip-rule="nonzero"/></clipPath><clipPath id="cea4e816fb"><path d="M 61.574219 178.101562 L 194.542969 61.273438 L 313.347656 196.496094 L 180.378906 313.324219 Z M 61.574219 178.101562 " clip-rule="nonzero"/></clipPath><clipPath id="3d67ffefaf"><path d="M 120 198 L 129 198 L 129 238 L 120 238 Z M 120 198 " clip-rule="nonzero"/></clipPath><clipPath id="9ab708ddf6"><path d="M 61.574219 178.101562 L 194.542969 61.273438 L 313.347656 196.496094 L 180.378906 313.324219 Z M 61.574219 178.101562 " clip-rule="nonzero"/></clipPath><clipPath id="f48521d406"><path d="M 61.574219 178.101562 L 194.542969 61.273438 L 313.347656 196.496094 L 180.378906 313.324219 Z M 61.574219 178.101562 " clip-rule="nonzero"/></clipPath><clipPath id="a876f9cb83"><path d="M 61.574219 178.101562 L 194.542969 61.273438 L 313.347656 196.496094 L 180.378906 313.324219 Z M 61.574219 178.101562 " clip-rule="nonzero"/></clipPath><clipPath id="a8a98dda63"><path d="M 97 191 L 121 191 L 121 227 L 97 227 Z M 97 191 " clip-rule="nonzero"/></clipPath><clipPath id="98585b0465"><path d="M 61.574219 178.101562 L 194.542969 61.273438 L 313.347656 196.496094 L 180.378906 313.324219 Z M 61.574219 178.101562 " clip-rule="nonzero"/></clipPath><clipPath id="aa662837e3"><path d="M 61.574219 178.101562 L 194.542969 61.273438 L 313.347656 196.496094 L 180.378906 313.324219 Z M 61.574219 178.101562 " clip-rule="nonzero"/></clipPath><clipPath id="8c4055ed4a"><path d="M 61.574219 178.101562 L 194.542969 61.273438 L 313.347656 196.496094 L 180.378906 313.324219 Z M 61.574219 178.101562 " clip-rule="nonzero"/></clipPath><clipPath id="0c5ac3c648"><path d="M 112 174 L 125 174 L 125 211 L 112 211 Z M 112 174 " clip-rule="nonzero"/></clipPath><clipPath id="fb8e6f5202"><path d="M 61.574219 178.101562 L 194.542969 61.273438 L 313.347656 196.496094 L 180.378906 313.324219 Z M 61.574219 178.101562 " clip-rule="nonzero"/></clipPath><clipPath id="c37e073f14"><path d="M 61.574219 178.101562 L 194.542969 61.273438 L 313.347656 196.496094 L 180.378906 313.324219 Z M 61.574219 178.101562 " clip-rule="nonzero"/></clipPath><clipPath id="4d7b9d5ef0"><path d="M 61.574219 178.101562 L 194.542969 61.273438 L 313.347656 196.496094 L 180.378906 313.324219 Z M 61.574219 178.101562 " clip-rule="nonzero"/></clipPath><clipPath id="7ab152b8a3"><path d="M 93 165 L 114 165 L 114 204 L 93 204 Z M 93 165 " clip-rule="nonzero"/></clipPath><clipPath id="3548648c83"><path d="M 61.574219 178.101562 L 194.542969 61.273438 L 313.347656 196.496094 L 180.378906 313.324219 Z M 61.574219 178.101562 " clip-rule="nonzero"/></clipPath><clipPath id="180458a7e0"><path d="M 61.574219 178.101562 L 194.542969 61.273438 L 313.347656 196.496094 L 180.378906 313.324219 Z M 61.574219 178.101562 " clip-rule="nonzero"/></clipPath><clipPath id="9878a65b7c"><path d="M 61.574219 178.101562 L 194.542969 61.273438 L 313.347656 196.496094 L 180.378906 313.324219 Z M 61.574219 178.101562 " clip-rule="nonzero"/></clipPath><clipPath id="e0efa74d0d"><path d="M 269 219 L 274 219 L 274 223 L 269 223 Z M 269 219 " clip-rule="nonzero"/></clipPath><clipPath id="5f16054cad"><path d="M 61.574219 178.101562 L 194.542969 61.273438 L 313.347656 196.496094 L 180.378906 313.324219 Z M 61.574219 178.101562 " clip-rule="nonzero"/></clipPath><clipPath id="218249f15f"><path d="M 61.574219 178.101562 L 194.542969 61.273438 L 313.347656 196.496094 L 180.378906 313.324219 Z M 61.574219 178.101562 " clip-rule="nonzero"/></clipPath><clipPath id="5dba387d42"><path d="M 61.574219 178.101562 L 194.542969 61.273438 L 313.347656 196.496094 L 180.378906 313.324219 Z M 61.574219 178.101562 " clip-rule="nonzero"/></clipPath><clipPath id="fbb3ae9f77"><path d="M 274 205 L 278 205 L 278 209 L 274 209 Z M 274 205 " clip-rule="nonzero"/></clipPath><clipPath id="8ae1c61635"><path d="M 61.574219 178.101562 L 194.542969 61.273438 L 313.347656 196.496094 L 180.378906 313.324219 Z M 61.574219 178.101562 " clip-rule="nonzero"/></clipPath><clipPath id="581f53324b"><path d="M 61.574219 178.101562 L 194.542969 61.273438 L 313.347656 196.496094 L 180.378906 313.324219 Z M 61.574219 178.101562 " clip-rule="nonzero"/></clipPath><clipPath id="1aabff3c95"><path d="M 61.574219 178.101562 L 194.542969 61.273438 L 313.347656 196.496094 L 180.378906 313.324219 Z M 61.574219 178.101562 " clip-rule="nonzero"/></clipPath><clipPath id="777c4c5914"><path d="M 276 190 L 280 190 L 280 195 L 276 195 Z M 276 190 " clip-rule="nonzero"/></clipPath><clipPath id="525783b81c"><path d="M 61.574219 178.101562 L 194.542969 61.273438 L 313.347656 196.496094 L 180.378906 313.324219 Z M 61.574219 178.101562 " clip-rule="nonzero"/></clipPath><clipPath id="ba89528ffe"><path d="M 61.574219 178.101562 L 194.542969 61.273438 L 313.347656 196.496094 L 180.378906 313.324219 Z M 61.574219 178.101562 " clip-rule="nonzero"/></clipPath><clipPath id="17aec27270"><path d="M 61.574219 178.101562 L 194.542969 61.273438 L 313.347656 196.496094 L 180.378906 313.324219 Z M 61.574219 178.101562 " clip-rule="nonzero"/></clipPath><clipPath id="4cdebd1325"><path d="M 275 176 L 280 176 L 280 181 L 275 181 Z M 275 176 " clip-rule="nonzero"/></clipPath><clipPath id="83f9f2eaff"><path d="M 61.574219 178.101562 L 194.542969 61.273438 L 313.347656 196.496094 L 180.378906 313.324219 Z M 61.574219 178.101562 " clip-rule="nonzero"/></clipPath><clipPath id="75a12590d2"><path d="M 61.574219 178.101562 L 194.542969 61.273438 L 313.347656 196.496094 L 180.378906 313.324219 Z M 61.574219 178.101562 " clip-rule="nonzero"/></clipPath><clipPath id="a2adc69372"><path d="M 61.574219 178.101562 L 194.542969 61.273438 L 313.347656 196.496094 L 180.378906 313.324219 Z M 61.574219 178.101562 " clip-rule="nonzero"/></clipPath></defs><g clip-path="url(#f02d1bb346)"><g clip-path="url(#8ab947d8f7)"><g clip-path="url(#d1c174a00f)"><g clip-path="url(#7e53d6a178)"><path fill="#000000" d="M 250.226562 251.851562 C 241.710938 259.332031 231.992188 264.929688 221.335938 268.484375 C 211.042969 271.914062 200.3125 273.308594 189.449219 272.621094 C 178.582031 271.933594 168.128906 269.207031 158.371094 264.511719 C 148.273438 259.652344 139.371094 252.882812 131.914062 244.394531 C 124.457031 235.90625 118.890625 226.207031 115.367188 215.566406 C 111.96875 205.289062 110.605469 194.566406 111.328125 183.707031 C 112.046875 172.84375 114.808594 162.382812 119.535156 152.617188 C 124.429688 142.507812 131.230469 133.585938 139.746094 126.105469 C 148.257812 118.625 157.980469 113.03125 168.636719 109.476562 C 178.929688 106.046875 189.65625 104.652344 200.523438 105.335938 C 211.386719 106.023438 221.84375 108.75 231.597656 113.445312 C 241.699219 118.308594 250.601562 125.078125 258.058594 133.566406 C 267.460938 144.269531 274.003906 157.253906 276.972656 171.113281 C 277.042969 171.453125 276.828125 171.785156 276.488281 171.859375 C 276.148438 171.929688 275.816406 171.71875 275.746094 171.378906 C 272.820312 157.726562 266.378906 144.9375 257.113281 134.394531 C 227.109375 100.246094 174.828125 96.949219 140.570312 127.046875 C 106.316406 157.144531 102.855469 209.414062 132.859375 243.566406 C 162.859375 277.714844 215.140625 281.011719 249.398438 250.914062 C 257.058594 244.183594 263.332031 236.242188 268.039062 227.304688 C 268.203125 227 268.578125 226.882812 268.886719 227.042969 C 269.195312 227.203125 269.3125 227.582031 269.148438 227.890625 C 264.367188 236.960938 258 245.023438 250.226562 251.851562 Z M 250.226562 251.851562 " fill-opacity="1" fill-rule="nonzero"/></g></g></g></g><g clip-path="url(#dc940c69a7)"><g clip-path="url(#344149435e)"><g clip-path="url(#45d19e92f1)"><g clip-path="url(#7413020e95)"><path fill="#000000" d="M 112.941406 178.519531 C 112.890625 178.5625 112.832031 178.601562 112.765625 178.628906 C 112.476562 178.75 112.140625 178.632812 111.984375 178.363281 C 109.601562 174.195312 108.453125 171.542969 108.378906 167.734375 C 108.335938 165.453125 108.765625 163.160156 109.171875 161.1875 C 110.195312 156.199219 111.527344 151.207031 113.132812 146.363281 L 113.363281 145.667969 C 114.070312 143.546875 114.804688 141.351562 114.988281 139.136719 C 115.164062 136.980469 114.824219 134.785156 114 132.789062 C 113.875 132.492188 114.003906 132.144531 114.289062 131.992188 C 114.578125 131.84375 114.9375 131.9375 115.109375 132.210938 C 117.113281 135.378906 118.355469 139.03125 118.691406 142.773438 C 119.199219 148.386719 117.671875 154.023438 115.953125 159.277344 C 115.808594 159.714844 115.664062 160.148438 115.519531 160.585938 C 114 165.15625 112.433594 169.882812 112.816406 174.621094 C 112.839844 174.914062 112.855469 175.226562 112.875 175.546875 C 112.914062 176.367188 112.960938 177.214844 113.136719 177.886719 C 113.199219 178.121094 113.117188 178.363281 112.941406 178.519531 Z M 109.632812 167.703125 C 109.683594 170.386719 110.292969 172.417969 111.585938 174.996094 C 111.582031 174.90625 111.574219 174.816406 111.566406 174.726562 C 111.160156 169.734375 112.773438 164.886719 114.332031 160.195312 C 114.476562 159.757812 114.617188 159.324219 114.761719 158.890625 C 116.441406 153.761719 117.929688 148.273438 117.445312 142.886719 C 117.277344 141.054688 116.886719 139.242188 116.28125 137.503906 C 116.300781 138.082031 116.285156 138.660156 116.238281 139.238281 C 116.039062 141.605469 115.285156 143.871094 114.550781 146.0625 L 114.324219 146.753906 C 112.734375 151.554688 111.414062 156.492188 110.398438 161.4375 C 109.988281 163.425781 109.59375 165.550781 109.632812 167.703125 Z M 109.632812 167.703125 " fill-opacity="1" fill-rule="nonzero"/></g></g></g></g><g clip-path="url(#e8c502f7ea)"><g clip-path="url(#a9f69fd842)"><g clip-path="url(#ebb29b7d04)"><g clip-path="url(#7b0092bb08)"><path fill="#000000" d="M 112.355469 185.527344 C 112.21875 185.648438 112.03125 185.707031 111.835938 185.675781 C 111.523438 185.621094 111.300781 185.347656 111.316406 185.035156 C 111.496094 180.230469 111.925781 177.367188 113.875 174.089844 C 115.042969 172.125 116.617188 170.402344 118.003906 168.9375 C 121.507812 165.234375 125.273438 161.691406 129.191406 158.417969 L 129.753906 157.949219 C 131.476562 156.515625 133.257812 155.035156 134.585938 153.246094 C 135.875 151.503906 136.746094 149.457031 137.101562 147.328125 C 137.15625 147.003906 137.445312 146.777344 137.769531 146.804688 C 138.09375 146.828125 138.347656 147.097656 138.347656 147.421875 C 138.375 151.175781 137.496094 154.9375 135.804688 158.296875 C 133.269531 163.339844 128.996094 167.332031 124.761719 170.894531 C 124.410156 171.1875 124.058594 171.484375 123.703125 171.78125 C 120.003906 174.867188 116.175781 178.0625 114 182.296875 C 113.863281 182.558594 113.710938 182.832031 113.554688 183.117188 C 113.160156 183.835938 112.75 184.578125 112.542969 185.242188 C 112.507812 185.355469 112.441406 185.453125 112.355469 185.527344 Z M 114.953125 174.726562 C 113.582031 177.039062 113.023438 179.089844 112.757812 181.964844 C 112.800781 181.886719 112.84375 181.804688 112.882812 181.726562 C 115.175781 177.265625 119.105469 173.984375 122.902344 170.816406 C 123.257812 170.523438 123.605469 170.230469 123.957031 169.933594 C 128.09375 166.457031 132.253906 162.574219 134.6875 157.734375 C 135.515625 156.085938 136.136719 154.335938 136.542969 152.539062 C 136.253906 153.039062 135.9375 153.527344 135.59375 153.992188 C 134.175781 155.902344 132.335938 157.429688 130.558594 158.910156 L 130 159.375 C 126.117188 162.621094 122.386719 166.125 118.917969 169.796875 C 117.515625 171.277344 116.054688 172.875 114.953125 174.726562 Z M 114.953125 174.726562 " fill-opacity="1" fill-rule="nonzero"/></g></g></g></g><g clip-path="url(#c61b567487)"><g clip-path="url(#b4c939e466)"><g clip-path="url(#5bce31518d)"><g clip-path="url(#cea4e816fb)"><path fill="#000000" d="M 129.882812 240.839844 C 129.738281 240.96875 129.542969 241.023438 129.347656 240.984375 C 126.753906 240.480469 124.699219 239.90625 122.890625 239.195312 C 117.609375 237.113281 113.199219 233.304688 109.574219 229.847656 C 108.671875 228.988281 107.765625 228.097656 106.890625 227.238281 C 104 224.410156 101.011719 221.476562 97.6875 219.109375 C 97.453125 218.945312 97.363281 218.636719 97.46875 218.367188 C 97.578125 218.097656 97.851562 217.9375 98.136719 217.976562 C 104.496094 218.835938 109.660156 220.554688 113.929688 223.234375 C 118.8125 226.296875 122.558594 230.734375 125.273438 234.257812 C 126.671875 236.070312 128.03125 237.722656 129.425781 239.308594 C 129.625 239.535156 129.808594 239.761719 129.980469 240 C 130.132812 240.207031 130.140625 240.488281 130.003906 240.707031 C 129.96875 240.757812 129.929688 240.800781 129.882812 240.839844 Z M 123.351562 238.027344 C 124.660156 238.542969 126.109375 238.980469 127.820312 239.378906 C 126.632812 238.003906 125.472656 236.570312 124.277344 235.027344 C 121.625 231.585938 117.972656 227.257812 113.257812 224.296875 C 109.703125 222.066406 105.484375 220.523438 100.421875 219.609375 C 103.03125 221.699219 105.433594 224.054688 107.769531 226.34375 C 108.640625 227.199219 109.546875 228.085938 110.445312 228.941406 C 113.976562 232.3125 118.273438 236.023438 123.351562 238.027344 Z M 123.351562 238.027344 " fill-opacity="1" fill-rule="nonzero"/></g></g></g></g><g clip-path="url(#3d67ffefaf)"><g clip-path="url(#9ab708ddf6)"><g clip-path="url(#f48521d406)"><g clip-path="url(#a876f9cb83)"><path fill="#000000" d="M 127.542969 236.890625 C 127.5 236.929688 127.449219 236.960938 127.394531 236.988281 C 127.125 237.113281 126.804688 237.035156 126.628906 236.796875 C 126.085938 236.074219 125.554688 235.25 125.003906 234.285156 C 123.800781 232.15625 122.988281 230.328125 122.445312 228.523438 C 121.03125 223.824219 121.359375 218.820312 121.679688 213.984375 C 122.011719 208.964844 122.355469 203.773438 120.679688 199.09375 C 120.585938 198.832031 120.671875 198.542969 120.894531 198.378906 C 121.117188 198.210938 121.421875 198.210938 121.644531 198.375 C 125.800781 201.445312 128.371094 207.074219 128.691406 213.8125 C 128.875 217.582031 128.425781 221.371094 127.996094 225.039062 C 127.773438 226.941406 127.539062 228.90625 127.402344 230.835938 C 127.25 232.90625 127.25 234.613281 127.726562 236.21875 C 127.730469 236.238281 127.738281 236.261719 127.742188 236.28125 C 127.792969 236.507812 127.714844 236.742188 127.542969 236.890625 Z M 122.488281 200.78125 C 123.523438 205.097656 123.222656 209.644531 122.929688 214.0625 C 122.617188 218.789062 122.296875 223.675781 123.644531 228.15625 C 124.160156 229.855469 124.929688 231.59375 126.070312 233.617188 C 126.035156 232.652344 126.082031 231.6875 126.148438 230.75 C 126.292969 228.792969 126.523438 226.8125 126.75 224.894531 C 127.171875 221.28125 127.613281 217.539062 127.4375 213.875 C 127.179688 208.441406 125.402344 203.792969 122.488281 200.78125 Z M 122.488281 200.78125 " fill-opacity="1" fill-rule="nonzero"/></g></g></g></g><g clip-path="url(#a8a98dda63)"><g clip-path="url(#98585b0465)"><g clip-path="url(#aa662837e3)"><g clip-path="url(#8c4055ed4a)"><path fill="#000000" d="M 119.832031 226.003906 C 119.808594 226.023438 119.789062 226.039062 119.761719 226.058594 C 119.519531 226.21875 119.199219 226.191406 118.988281 225.992188 C 109.027344 216.644531 101.464844 204.867188 97.125 191.925781 C 97.027344 191.632812 97.15625 191.316406 97.429688 191.171875 C 97.699219 191.027344 98.039062 191.101562 98.222656 191.347656 C 99.996094 193.710938 102.039062 195.941406 104.015625 198.101562 C 106.058594 200.335938 108.171875 202.644531 110.019531 205.128906 C 114.269531 210.855469 117.089844 217.34375 120.007812 225.320312 C 120.097656 225.5625 120.023438 225.835938 119.832031 226.003906 Z M 99.585938 195.035156 C 103.65625 205.535156 109.902344 215.148438 117.855469 223.140625 C 115.304688 216.445312 112.707031 210.851562 109.007812 205.875 C 107.203125 203.445312 105.109375 201.160156 103.089844 198.949219 C 101.921875 197.675781 100.734375 196.378906 99.585938 195.035156 Z M 99.585938 195.035156 " fill-opacity="1" fill-rule="nonzero"/></g></g></g></g><g clip-path="url(#0c5ac3c648)"><g clip-path="url(#fb8e6f5202)"><g clip-path="url(#c37e073f14)"><g clip-path="url(#4d7b9d5ef0)"><path fill="#000000" d="M 114.183594 210.644531 C 114.082031 210.738281 113.945312 210.796875 113.796875 210.800781 C 113.496094 210.816406 113.230469 210.613281 113.160156 210.320312 C 112.769531 208.648438 112.6875 206.703125 112.90625 204.203125 C 113.832031 193.546875 117.578125 183.285156 123.746094 174.53125 C 123.90625 174.300781 124.199219 174.207031 124.464844 174.296875 C 124.726562 174.386719 124.898438 174.640625 124.886719 174.921875 C 124.59375 180.710938 124.292969 186.695312 122.199219 192.292969 C 121.335938 194.601562 120.082031 196.964844 118.863281 199.246094 C 116.949219 202.847656 114.964844 206.566406 114.394531 210.269531 C 114.371094 210.421875 114.292969 210.550781 114.183594 210.644531 Z M 114.15625 204.304688 C 114.085938 205.128906 114.046875 205.882812 114.042969 206.585938 C 114.972656 203.890625 116.378906 201.246094 117.753906 198.660156 C 119.007812 196.308594 120.1875 194.089844 121.023438 191.855469 C 122.785156 187.148438 123.238281 182.089844 123.515625 177.105469 C 118.222656 185.257812 114.996094 194.613281 114.15625 204.304688 Z M 114.15625 204.304688 " fill-opacity="1" fill-rule="nonzero"/></g></g></g></g><g clip-path="url(#7ab152b8a3)"><g clip-path="url(#3548648c83)"><g clip-path="url(#180458a7e0)"><g clip-path="url(#9878a65b7c)"><path fill="#000000" d="M 112.972656 203.707031 C 112.941406 203.734375 112.90625 203.761719 112.863281 203.78125 C 112.667969 203.894531 112.429688 203.890625 112.238281 203.773438 C 111.160156 203.132812 110.144531 202.222656 109.3125 201.140625 C 107.878906 199.28125 107.023438 197.09375 106.308594 195.015625 C 105.492188 192.632812 104.792969 190.179688 104.117188 187.804688 C 103.367188 185.167969 102.59375 182.445312 101.65625 179.832031 C 99.921875 174.992188 93.570312 166.691406 93.507812 166.609375 C 93.316406 166.359375 93.339844 166.003906 93.5625 165.78125 C 93.785156 165.558594 94.140625 165.535156 94.390625 165.730469 C 94.859375 166.097656 105.90625 174.773438 109.09375 181.023438 C 112.964844 188.605469 113.246094 199.089844 113.183594 203.242188 C 113.183594 203.421875 113.105469 203.589844 112.972656 203.707031 Z M 110.308594 200.375 C 110.792969 201.007812 111.347656 201.570312 111.9375 202.042969 C 111.917969 197.417969 111.394531 188.296875 107.976562 181.59375 C 106.074219 177.859375 101.023438 173.050781 97.453125 169.925781 C 99.421875 172.789062 101.828125 176.59375 102.835938 179.402344 C 103.789062 182.054688 104.570312 184.800781 105.324219 187.457031 C 105.996094 189.816406 106.691406 192.253906 107.5 194.601562 C 108.175781 196.585938 108.988281 198.65625 110.308594 200.375 Z M 110.308594 200.375 " fill-opacity="1" fill-rule="nonzero"/></g></g></g></g><g clip-path="url(#e0efa74d0d)"><g clip-path="url(#5f16054cad)"><g clip-path="url(#218249f15f)"><g clip-path="url(#5dba387d42)"><path fill="#000000" d="M 272.949219 219.664062 C 273.113281 219.851562 273.234375 220.0625 273.3125 220.300781 C 273.394531 220.535156 273.425781 220.777344 273.410156 221.027344 C 273.394531 221.277344 273.328125 221.511719 273.21875 221.738281 C 273.109375 221.960938 272.960938 222.15625 272.773438 222.320312 C 272.585938 222.484375 272.371094 222.609375 272.136719 222.6875 C 271.898438 222.769531 271.65625 222.800781 271.40625 222.785156 C 271.160156 222.769531 270.921875 222.707031 270.699219 222.597656 C 270.476562 222.488281 270.28125 222.339844 270.117188 222.152344 C 269.953125 221.964844 269.828125 221.753906 269.75 221.519531 C 269.667969 221.28125 269.636719 221.039062 269.65625 220.789062 C 269.671875 220.542969 269.734375 220.304688 269.84375 220.082031 C 269.957031 219.859375 270.105469 219.664062 270.292969 219.5 C 270.480469 219.332031 270.691406 219.210938 270.929688 219.128906 C 271.164062 219.046875 271.40625 219.015625 271.65625 219.03125 C 271.90625 219.046875 272.140625 219.109375 272.367188 219.21875 C 272.589844 219.328125 272.78125 219.476562 272.949219 219.664062 Z M 272.949219 219.664062 " fill-opacity="1" fill-rule="nonzero"/></g></g></g></g><g clip-path="url(#fbb3ae9f77)"><g clip-path="url(#8ae1c61635)"><g clip-path="url(#581f53324b)"><g clip-path="url(#1aabff3c95)"><path fill="#000000" d="M 277.371094 205.875 C 277.539062 206.0625 277.660156 206.273438 277.738281 206.511719 C 277.820312 206.746094 277.851562 206.988281 277.835938 207.238281 C 277.820312 207.488281 277.753906 207.722656 277.644531 207.949219 C 277.535156 208.171875 277.386719 208.367188 277.195312 208.53125 C 277.007812 208.695312 276.796875 208.820312 276.5625 208.898438 C 276.324219 208.980469 276.082031 209.011719 275.832031 208.996094 C 275.585938 208.980469 275.347656 208.917969 275.125 208.808594 C 274.898438 208.699219 274.707031 208.550781 274.542969 208.363281 C 274.378906 208.175781 274.253906 207.964844 274.175781 207.730469 C 274.09375 207.492188 274.0625 207.25 274.078125 207 C 274.097656 206.753906 274.160156 206.515625 274.269531 206.292969 C 274.378906 206.066406 274.53125 205.875 274.71875 205.707031 C 274.90625 205.542969 275.117188 205.421875 275.355469 205.339844 C 275.589844 205.257812 275.832031 205.226562 276.082031 205.242188 C 276.332031 205.257812 276.566406 205.320312 276.789062 205.429688 C 277.015625 205.539062 277.207031 205.6875 277.371094 205.875 Z M 277.371094 205.875 " fill-opacity="1" fill-rule="nonzero"/></g></g></g></g><g clip-path="url(#777c4c5914)"><g clip-path="url(#525783b81c)"><g clip-path="url(#ba89528ffe)"><g clip-path="url(#17aec27270)"><path fill="#000000" d="M 279.339844 191.535156 C 279.503906 191.722656 279.625 191.933594 279.707031 192.171875 C 279.785156 192.40625 279.816406 192.648438 279.800781 192.898438 C 279.785156 193.148438 279.71875 193.382812 279.609375 193.605469 C 279.5 193.832031 279.351562 194.027344 279.164062 194.191406 C 278.976562 194.355469 278.761719 194.476562 278.527344 194.558594 C 278.289062 194.640625 278.046875 194.671875 277.796875 194.65625 C 277.550781 194.640625 277.3125 194.578125 277.089844 194.46875 C 276.867188 194.359375 276.671875 194.210938 276.507812 194.023438 C 276.34375 193.835938 276.21875 193.625 276.140625 193.386719 C 276.058594 193.152344 276.027344 192.910156 276.046875 192.660156 C 276.0625 192.414062 276.125 192.175781 276.234375 191.953125 C 276.347656 191.726562 276.496094 191.535156 276.683594 191.367188 C 276.871094 191.203125 277.082031 191.082031 277.320312 191 C 277.554688 190.917969 277.796875 190.886719 278.046875 190.902344 C 278.296875 190.917969 278.53125 190.980469 278.757812 191.089844 C 278.980469 191.199219 279.175781 191.347656 279.339844 191.535156 Z M 279.339844 191.535156 " fill-opacity="1" fill-rule="nonzero"/></g></g></g></g><g clip-path="url(#4cdebd1325)"><g clip-path="url(#83f9f2eaff)"><g clip-path="url(#75a12590d2)"><g clip-path="url(#a2adc69372)"><path fill="#000000" d="M 278.78125 177.078125 C 278.949219 177.265625 279.070312 177.476562 279.148438 177.714844 C 279.230469 177.949219 279.261719 178.191406 279.246094 178.441406 C 279.230469 178.691406 279.164062 178.925781 279.054688 179.152344 C 278.945312 179.375 278.792969 179.570312 278.605469 179.734375 C 278.417969 179.898438 278.207031 180.023438 277.972656 180.101562 C 277.734375 180.183594 277.492188 180.214844 277.242188 180.199219 C 276.992188 180.183594 276.757812 180.121094 276.535156 180.011719 C 276.308594 179.902344 276.117188 179.753906 275.953125 179.566406 C 275.789062 179.378906 275.664062 179.167969 275.585938 178.933594 C 275.503906 178.695312 275.472656 178.453125 275.488281 178.203125 C 275.507812 177.957031 275.570312 177.71875 275.679688 177.496094 C 275.789062 177.273438 275.941406 177.078125 276.128906 176.914062 C 276.316406 176.746094 276.527344 176.625 276.761719 176.542969 C 277 176.464844 277.242188 176.429688 277.492188 176.445312 C 277.742188 176.460938 277.976562 176.523438 278.199219 176.632812 C 278.425781 176.742188 278.617188 176.890625 278.78125 177.078125 Z M 278.78125 177.078125 " fill-opacity="1" fill-rule="nonzero"/></g></g></g></g><path stroke-linecap="butt" transform="matrix(0.75, 0, 0, 0.75, 132.948394, 100.657143)" fill="none" stroke-linejoin="miter" d="M 60.60527 17.524852 L 60.60527 15.618602 L 112.011523 15.618602 L 112.011523 17.524852 C 106.558398 17.524852 102.594856 19.181102 100.115689 22.498811 C 97.636523 25.785269 96.074022 31.144645 95.422981 38.582145 C 94.803189 45.988396 94.490689 55.97798 94.490689 68.561314 L 94.490689 153.061319 C 94.490689 165.514445 94.803189 175.493613 95.422981 182.993613 C 96.074022 190.462364 97.636523 195.852989 100.115689 199.165489 C 102.594856 202.451948 106.558398 204.092573 112.011523 204.092573 L 112.011523 205.998823 L 60.60527 205.998823 L 60.60527 204.092573 C 66.063604 204.092573 70.027146 202.451948 72.506313 199.165489 C 74.985479 195.852989 76.532354 190.462364 77.152146 182.993613 C 77.803188 175.493613 78.131313 165.514445 78.131313 153.061319 L 78.131313 68.561314 C 78.131313 55.97798 77.803188 45.988396 77.152146 38.582145 C 76.532354 31.144645 74.985479 25.785269 72.506313 22.498811 C 70.027146 19.181102 66.063604 17.524852 60.60527 17.524852 Z M 60.60527 17.524852 " stroke="#fffdf9" stroke-width="20.466818" stroke-opacity="1" stroke-miterlimit="4"/><g fill="#000000" fill-opacity="1"><g transform="translate(174.11636, 255.157133)"><g><path d="M 4.28125 -141.359375 L 4.28125 -142.78125 L 42.828125 -142.78125 L 42.828125 -141.359375 C 38.734375 -141.359375 35.757812 -140.117188 33.90625 -137.640625 C 32.050781 -135.160156 30.882812 -131.132812 30.40625 -125.5625 C 29.9375 -120 29.703125 -112.507812 29.703125 -103.09375 L 29.703125 -39.6875 C 29.703125 -30.363281 29.9375 -22.894531 30.40625 -17.28125 C 30.882812 -11.664062 32.050781 -7.617188 33.90625 -5.140625 C 35.757812 -2.660156 38.734375 -1.421875 42.828125 -1.421875 L 42.828125 0 L 4.28125 0 L 4.28125 -1.421875 C 8.375 -1.421875 11.347656 -2.660156 13.203125 -5.140625 C 15.054688 -7.617188 16.222656 -11.664062 16.703125 -17.28125 C 17.179688 -22.894531 17.421875 -30.363281 17.421875 -39.6875 L 17.421875 -103.09375 C 17.421875 -112.507812 17.179688 -120 16.703125 -125.5625 C 16.222656 -131.132812 15.054688 -135.160156 13.203125 -137.640625 C 11.347656 -140.117188 8.375 -141.359375 4.28125 -141.359375 Z M 4.28125 -141.359375 "/></g></g></g><path stroke-linecap="butt" transform="matrix(0.75, 0, 0, 0.75, 132.948394, 129.910069)" fill="none" stroke-linejoin="miter" d="M 33.740685 11.041784 L 49.391728 11.041784 C 53.344853 11.041784 57.704228 10.817825 62.469854 10.380325 C 67.240687 9.921992 72.006313 9.468867 76.771938 9.031367 C 81.558396 8.567825 85.933397 8.338658 89.886522 8.338658 C 94.652147 8.338658 99.209439 8.744908 103.558398 9.557409 C 107.933398 10.369909 111.829232 11.744909 115.256315 13.6772 C 118.683399 15.609492 121.386524 18.156367 123.360483 21.317826 C 125.339649 24.46366 126.329233 28.416785 126.329233 33.18241 C 126.329233 38.21366 125.219858 42.526161 123.001108 46.130328 C 120.803191 49.734495 117.881316 52.817828 114.235482 55.390745 C 110.589648 57.93762 106.600065 60.114704 102.277148 61.911579 C 97.969856 63.713662 93.652147 65.338662 89.324022 66.791787 C 85.021938 68.218871 81.042771 69.588662 77.396938 70.906371 C 73.751104 72.203246 70.818812 73.619913 68.600062 75.16158 C 66.402145 76.677205 65.303187 78.520955 65.303187 80.69283 C 65.303187 82.208455 65.756312 83.177205 66.657354 83.593872 C 67.558396 83.989705 68.412562 84.187622 69.225062 84.187622 C 71.115687 84.187622 73.433396 83.494913 76.178188 82.109497 C 78.92298 80.703247 82.042771 79.333455 85.537563 77.994913 C 89.053189 76.63033 92.969856 75.948038 97.297981 75.948038 C 104.219856 75.948038 110.511523 77.343871 116.17819 80.135538 C 121.870899 82.921997 126.391733 86.843872 129.756316 91.895956 C 133.136525 96.927206 134.829233 102.859498 134.829233 109.687623 C 134.829233 117.421999 133.094858 124.244916 129.6209 130.151166 C 126.152149 136.036584 121.089649 140.6095 114.433399 143.859501 C 107.777148 147.088668 99.636523 148.703251 90.01673 148.703251 C 84.787563 148.703251 80.07923 148.468876 75.881313 148.010543 C 71.709437 147.573043 67.579229 147.119918 63.495895 146.661584 C 59.407353 146.218876 54.881311 146.000126 49.917769 146.000126 L 33.740685 146.000126 L 33.740685 144.651167 C 37.605269 144.651167 40.417769 143.484501 42.172977 141.156376 C 43.933394 138.807417 45.032352 134.9845 45.469852 129.687625 C 45.933394 124.375124 46.162561 117.302207 46.162561 108.468873 L 46.162561 48.567828 C 46.162561 39.651161 45.933394 32.567827 45.469852 27.317826 C 45.032352 22.046993 43.933394 18.244909 42.172977 15.916784 C 40.417769 13.567825 37.605269 12.390742 33.740685 12.390742 Z M 57.626103 14.005325 L 57.626103 142.505334 C 61.756312 143.937626 65.66777 145.010542 69.360479 145.734501 C 73.047979 146.463668 77.365688 146.823043 82.308397 146.823043 C 90.678189 146.823043 97.912564 145.364709 104.02194 142.442834 C 110.14694 139.500125 114.881315 135.333458 118.219857 129.95325 C 121.558399 124.552208 123.230274 118.114707 123.230274 110.645957 C 123.230274 106.60429 122.657357 102.630331 121.516732 98.718873 C 120.396941 94.786581 118.725066 91.203247 116.506315 87.97408 C 114.313607 84.72408 111.600065 82.156372 108.370898 80.265747 C 105.141731 78.375121 101.407356 77.432413 97.167772 77.432413 C 93.391731 77.432413 89.82923 78.114705 86.490688 79.47408 C 83.17298 80.81783 80.058396 82.166788 77.136521 83.526163 C 74.214646 84.869913 71.402146 85.53658 68.699021 85.53658 C 67.511521 85.53658 66.428187 85.177205 65.438604 84.453247 C 64.44902 83.72408 63.954229 82.562622 63.954229 80.958455 C 63.954229 77.994913 65.172979 75.390746 67.610479 73.151163 C 70.047979 70.885538 73.204229 68.765746 77.068813 66.791787 C 80.933396 64.81262 85.021938 62.81262 89.324022 60.791787 C 93.652147 58.75012 97.751106 56.479287 101.615689 53.974078 C 105.480273 51.448036 108.620898 48.526161 111.037565 45.208453 C 113.475065 41.869911 114.699024 37.948035 114.699024 33.448035 C 114.699024 27.864701 113.126107 23.375118 109.985482 19.968868 C 106.844856 16.541784 102.766731 14.062617 97.761523 12.52095 C 92.771939 10.984492 87.537564 10.218867 82.042771 10.218867 C 77.652146 10.218867 73.464646 10.536575 69.490687 11.171992 C 65.537562 11.807409 61.584437 12.755325 57.626103 14.005325 Z M 57.626103 14.005325 " stroke="#fffdf9" stroke-width="15.014745" stroke-opacity="1" stroke-miterlimit="4"/><g fill="#000000" fill-opacity="1"><g transform="translate(155.214018, 239.410062)"><g><path d="M 3.03125 -101.21875 L 14.78125 -101.21875 C 17.75 -101.21875 21.019531 -101.382812 24.59375 -101.71875 C 28.164062 -102.0625 31.738281 -102.398438 35.3125 -102.734375 C 38.894531 -103.078125 42.171875 -103.25 45.140625 -103.25 C 48.722656 -103.25 52.148438 -102.941406 55.421875 -102.328125 C 58.691406 -101.722656 61.609375 -100.691406 64.171875 -99.234375 C 66.734375 -97.785156 68.753906 -95.878906 70.234375 -93.515625 C 71.722656 -91.160156 72.46875 -88.195312 72.46875 -84.625 C 72.46875 -80.84375 71.640625 -77.601562 69.984375 -74.90625 C 68.335938 -72.207031 66.144531 -69.894531 63.40625 -67.96875 C 60.675781 -66.039062 57.691406 -64.398438 54.453125 -63.046875 C 51.210938 -61.703125 47.972656 -60.488281 44.734375 -59.40625 C 41.492188 -58.332031 38.507812 -57.304688 35.78125 -56.328125 C 33.050781 -55.347656 30.859375 -54.285156 29.203125 -53.140625 C 27.546875 -51.992188 26.71875 -50.609375 26.71875 -48.984375 C 26.71875 -47.835938 27.054688 -47.113281 27.734375 -46.8125 C 28.410156 -46.507812 29.050781 -46.359375 29.65625 -46.359375 C 31.070312 -46.359375 32.804688 -46.878906 34.859375 -47.921875 C 36.921875 -48.972656 39.269531 -50.003906 41.90625 -51.015625 C 44.539062 -52.023438 47.472656 -52.53125 50.703125 -52.53125 C 55.898438 -52.53125 60.625 -51.484375 64.875 -49.390625 C 69.132812 -47.296875 72.523438 -44.359375 75.046875 -40.578125 C 77.578125 -36.804688 78.84375 -32.359375 78.84375 -27.234375 C 78.84375 -21.421875 77.546875 -16.304688 74.953125 -11.890625 C 72.359375 -7.472656 68.5625 -4.046875 63.5625 -1.609375 C 58.570312 0.816406 52.46875 2.03125 45.25 2.03125 C 41.332031 2.03125 37.800781 1.859375 34.65625 1.515625 C 31.519531 1.179688 28.414062 0.84375 25.34375 0.5 C 22.28125 0.164062 18.894531 0 15.1875 0 L 3.03125 0 L 3.03125 -1.015625 C 5.9375 -1.015625 8.046875 -1.890625 9.359375 -3.640625 C 10.679688 -5.398438 11.507812 -8.269531 11.84375 -12.25 C 12.175781 -16.226562 12.34375 -21.523438 12.34375 -28.140625 L 12.34375 -73.078125 C 12.34375 -79.753906 12.175781 -85.066406 11.84375 -89.015625 C 11.507812 -92.960938 10.679688 -95.8125 9.359375 -97.5625 C 8.046875 -99.320312 5.9375 -100.203125 3.03125 -100.203125 Z M 20.953125 -98.984375 L 20.953125 -2.625 C 24.054688 -1.550781 26.988281 -0.742188 29.75 -0.203125 C 32.519531 0.335938 35.757812 0.609375 39.46875 0.609375 C 45.75 0.609375 51.179688 -0.484375 55.765625 -2.671875 C 60.359375 -4.867188 63.898438 -7.992188 66.390625 -12.046875 C 68.890625 -16.097656 70.140625 -20.921875 70.140625 -26.515625 C 70.140625 -29.554688 69.71875 -32.539062 68.875 -35.46875 C 68.03125 -38.40625 66.78125 -41.085938 65.125 -43.515625 C 63.476562 -45.953125 61.4375 -47.878906 59 -49.296875 C 56.570312 -50.710938 53.773438 -51.421875 50.609375 -51.421875 C 47.773438 -51.421875 45.109375 -50.910156 42.609375 -49.890625 C 40.117188 -48.878906 37.773438 -47.867188 35.578125 -46.859375 C 33.378906 -45.847656 31.269531 -45.34375 29.25 -45.34375 C 28.375 -45.34375 27.5625 -45.613281 26.8125 -46.15625 C 26.070312 -46.695312 25.703125 -47.570312 25.703125 -48.78125 C 25.703125 -51.007812 26.613281 -52.96875 28.4375 -54.65625 C 30.257812 -56.34375 32.617188 -57.925781 35.515625 -59.40625 C 38.421875 -60.894531 41.492188 -62.398438 44.734375 -63.921875 C 47.972656 -65.441406 51.039062 -67.144531 53.9375 -69.03125 C 56.84375 -70.914062 59.207031 -73.109375 61.03125 -75.609375 C 62.851562 -78.109375 63.765625 -81.046875 63.765625 -84.421875 C 63.765625 -88.597656 62.582031 -91.96875 60.21875 -94.53125 C 57.863281 -97.101562 54.8125 -98.960938 51.0625 -100.109375 C 47.320312 -101.253906 43.390625 -101.828125 39.265625 -101.828125 C 35.960938 -101.828125 32.828125 -101.585938 29.859375 -101.109375 C 26.890625 -100.640625 23.921875 -99.929688 20.953125 -98.984375 Z M 20.953125 -98.984375 "/></g></g></g><g fill="#231915" fill-opacity="1"><g transform="translate(81.573763, 289.711736)"><g><path d="M 1.53125 -9.421875 L 2.53125 -9.421875 L 2.53125 0 L 1.53125 0 Z M 1.53125 -9.421875 "/></g></g></g><g fill="#231915" fill-opacity="1"><g transform="translate(91.758374, 289.711736)"><g><path d="M 11.3125 -9.421875 L 11.3125 0 L 10.359375 0 L 10.359375 -7.53125 L 6.65625 -1.203125 L 6.1875 -1.203125 L 2.484375 -7.5 L 2.484375 0 L 1.53125 0 L 1.53125 -9.421875 L 2.359375 -9.421875 L 6.4375 -2.4375 L 10.5 -9.421875 Z M 11.3125 -9.421875 "/></g></g></g><g fill="#231915" fill-opacity="1"><g transform="translate(110.721947, 289.711736)"><g><path d="M 5.0625 -9.421875 C 6.257812 -9.421875 7.195312 -9.128906 7.875 -8.546875 C 8.5625 -7.972656 8.90625 -7.1875 8.90625 -6.1875 C 8.90625 -5.1875 8.5625 -4.398438 7.875 -3.828125 C 7.195312 -3.253906 6.257812 -2.96875 5.0625 -2.96875 L 2.53125 -2.96875 L 2.53125 0 L 1.53125 0 L 1.53125 -9.421875 Z M 5.03125 -3.84375 C 5.96875 -3.84375 6.679688 -4.046875 7.171875 -4.453125 C 7.660156 -4.867188 7.90625 -5.445312 7.90625 -6.1875 C 7.90625 -6.945312 7.660156 -7.53125 7.171875 -7.9375 C 6.679688 -8.351562 5.96875 -8.5625 5.03125 -8.5625 L 2.53125 -8.5625 L 2.53125 -3.84375 Z M 5.03125 -3.84375 "/></g></g></g><g fill="#231915" fill-opacity="1"><g transform="translate(126.499278, 289.711736)"><g><path d="M 8.1875 -0.859375 L 8.1875 0 L 1.53125 0 L 1.53125 -9.421875 L 7.984375 -9.421875 L 7.984375 -8.5625 L 2.53125 -8.5625 L 2.53125 -5.203125 L 7.40625 -5.203125 L 7.40625 -4.359375 L 2.53125 -4.359375 L 2.53125 -0.859375 Z M 8.1875 -0.859375 "/></g></g></g><g fill="#231915" fill-opacity="1"><g transform="translate(141.617859, 289.711736)"><g><path d="M 7.96875 0 L 5.8125 -3.03125 C 5.570312 -3 5.320312 -2.984375 5.0625 -2.984375 L 2.53125 -2.984375 L 2.53125 0 L 1.53125 0 L 1.53125 -9.421875 L 5.0625 -9.421875 C 6.257812 -9.421875 7.195312 -9.128906 7.875 -8.546875 C 8.5625 -7.972656 8.90625 -7.1875 8.90625 -6.1875 C 8.90625 -5.445312 8.71875 -4.820312 8.34375 -4.3125 C 7.976562 -3.8125 7.445312 -3.453125 6.75 -3.234375 L 9.046875 0 Z M 5.03125 -3.828125 C 5.96875 -3.828125 6.679688 -4.035156 7.171875 -4.453125 C 7.660156 -4.867188 7.90625 -5.445312 7.90625 -6.1875 C 7.90625 -6.945312 7.660156 -7.53125 7.171875 -7.9375 C 6.679688 -8.351562 5.96875 -8.5625 5.03125 -8.5625 L 2.53125 -8.5625 L 2.53125 -3.828125 Z M 5.03125 -3.828125 "/></g></g></g><g fill="#231915" fill-opacity="1"><g transform="translate(157.462413, 289.711736)"><g><path d="M 1.53125 -9.421875 L 2.53125 -9.421875 L 2.53125 0 L 1.53125 0 Z M 1.53125 -9.421875 "/></g></g></g><g fill="#231915" fill-opacity="1"><g transform="translate(167.647025, 289.711736)"><g><path d="M 7.4375 -2.515625 L 2.1875 -2.515625 L 1.0625 0 L 0.03125 0 L 4.328125 -9.421875 L 5.3125 -9.421875 L 9.625 0 L 8.5625 0 Z M 7.078125 -3.328125 L 4.8125 -8.375 L 2.5625 -3.328125 Z M 7.078125 -3.328125 "/></g></g></g><g fill="#231915" fill-opacity="1"><g transform="translate(183.410912, 289.711736)"><g><path d="M 1.53125 -9.421875 L 2.53125 -9.421875 L 2.53125 -0.859375 L 7.796875 -0.859375 L 7.796875 0 L 1.53125 0 Z M 1.53125 -9.421875 "/></g></g></g><g fill="#231915" fill-opacity="1"><g transform="translate(197.45396, 289.711736)"><g/></g></g><g fill="#231915" fill-opacity="1"><g transform="translate(207.100812, 289.711736)"><g><path d="M 7.46875 -4.859375 C 8.082031 -4.722656 8.554688 -4.453125 8.890625 -4.046875 C 9.234375 -3.648438 9.40625 -3.140625 9.40625 -2.515625 C 9.40625 -1.710938 9.101562 -1.09375 8.5 -0.65625 C 7.90625 -0.21875 7.023438 0 5.859375 0 L 1.53125 0 L 1.53125 -9.421875 L 5.59375 -9.421875 C 6.644531 -9.421875 7.457031 -9.207031 8.03125 -8.78125 C 8.613281 -8.363281 8.90625 -7.769531 8.90625 -7 C 8.90625 -6.476562 8.773438 -6.035156 8.515625 -5.671875 C 8.265625 -5.304688 7.914062 -5.035156 7.46875 -4.859375 Z M 2.53125 -8.59375 L 2.53125 -5.171875 L 5.53125 -5.171875 C 6.289062 -5.171875 6.875 -5.316406 7.28125 -5.609375 C 7.695312 -5.898438 7.90625 -6.328125 7.90625 -6.890625 C 7.90625 -7.441406 7.695312 -7.863281 7.28125 -8.15625 C 6.875 -8.445312 6.289062 -8.59375 5.53125 -8.59375 Z M 5.859375 -0.828125 C 6.691406 -0.828125 7.320312 -0.96875 7.75 -1.25 C 8.1875 -1.539062 8.40625 -1.988281 8.40625 -2.59375 C 8.40625 -3.769531 7.554688 -4.359375 5.859375 -4.359375 L 2.53125 -4.359375 L 2.53125 -0.828125 Z M 5.859375 -0.828125 "/></g></g></g><g fill="#231915" fill-opacity="1"><g transform="translate(223.362137, 289.711736)"><g><path d="M 8.1875 -0.859375 L 8.1875 0 L 1.53125 0 L 1.53125 -9.421875 L 7.984375 -9.421875 L 7.984375 -8.5625 L 2.53125 -8.5625 L 2.53125 -5.203125 L 7.40625 -5.203125 L 7.40625 -4.359375 L 2.53125 -4.359375 L 2.53125 -0.859375 Z M 8.1875 -0.859375 "/></g></g></g><g fill="#231915" fill-opacity="1"><g transform="translate(238.480718, 289.711736)"><g><path d="M 7.4375 -2.515625 L 2.1875 -2.515625 L 1.0625 0 L 0.03125 0 L 4.328125 -9.421875 L 5.3125 -9.421875 L 9.625 0 L 8.5625 0 Z M 7.078125 -3.328125 L 4.8125 -8.375 L 2.5625 -3.328125 Z M 7.078125 -3.328125 "/></g></g></g><g fill="#231915" fill-opacity="1"><g transform="translate(254.244605, 289.711736)"><g><path d="M 5.328125 0.078125 C 4.109375 0.078125 3.15625 -0.269531 2.46875 -0.96875 C 1.789062 -1.664062 1.453125 -2.679688 1.453125 -4.015625 L 1.453125 -9.421875 L 2.453125 -9.421875 L 2.453125 -4.0625 C 2.453125 -2.96875 2.695312 -2.148438 3.1875 -1.609375 C 3.675781 -1.078125 4.390625 -0.8125 5.328125 -0.8125 C 6.265625 -0.8125 6.976562 -1.078125 7.46875 -1.609375 C 7.96875 -2.148438 8.21875 -2.96875 8.21875 -4.0625 L 8.21875 -9.421875 L 9.1875 -9.421875 L 9.1875 -4.015625 C 9.1875 -2.679688 8.847656 -1.664062 8.171875 -0.96875 C 7.492188 -0.269531 6.546875 0.078125 5.328125 0.078125 Z M 5.328125 0.078125 "/></g></g></g><g fill="#231915" fill-opacity="1"><g transform="translate(271.016802, 289.711736)"><g><path d="M 3.359375 -8.5625 L 0.046875 -8.5625 L 0.046875 -9.421875 L 7.671875 -9.421875 L 7.671875 -8.5625 L 4.359375 -8.5625 L 4.359375 0 L 3.359375 0 Z M 3.359375 -8.5625 "/></g></g></g><g fill="#231915" fill-opacity="1"><g transform="translate(284.858193, 289.711736)"><g><path d="M 4.765625 -3.25 L 4.765625 0 L 3.78125 0 L 3.78125 -3.25 L 0.015625 -9.421875 L 1.078125 -9.421875 L 4.3125 -4.125 L 7.53125 -9.421875 L 8.53125 -9.421875 Z M 4.765625 -3.25 "/></g></g></g></svg>